<?xml version="1.0" encoding="iso-8859-1"?>
<!-- Generator: Adobe Illustrator 19.0.0, SVG Export Plug-In . SVG Version: 6.00 Build 0)  -->
<svg version="1.1" id="Capa_1" xmlns="http://www.w3.org/2000/svg" xmlns:xlink="http://www.w3.org/1999/xlink" x="0px" y="0px"
	 viewBox="0 0 166.942 166.942" style="enable-background:new 0 0 166.942 166.942;" xml:space="preserve">
<g>
	<circle style="fill:#9DE7F9;" cx="83.471" cy="83.472" r="83.471"/>
	<g>
		<path style="fill:#FF8800;" d="M41.57,76.225c-2.489,4.215-4.738,8.431-5.952,13.055h0.71c0.986-1.517,2.212-2.839,3.295-4.159
			c-0.481,1.385-0.942,2.77-1.364,4.159h93.822c0.935-3.509,1.388-7.064,1.589-10.749c-0.648,2.307-1.946,4.613-3.243,6.59
			c0.973-5.931,0.973-12.19,0-18.121c-0.324,1.977-0.648,4.283-1.622,6.26c-0.973-6.26-1.946-12.52-4.864-18.121
			c0.324,1.977,0.649,4.283,0,6.261c-1.622-6.261-5.513-11.532-9.405-16.804c0.324,1.977,1.297,3.624,1.622,5.602
			c-3.892-5.272-8.756-9.885-14.269-13.839c1.297,1.648,2.27,3.295,3.243,4.942c-5.514-3.954-11.351-7.248-17.837-9.555
			c1.622,1.647,3.567,2.636,5.188,4.283c-6.485-2.636-12.972-3.954-19.782-4.613c2.594,0.33,4.864,1.978,7.459,2.966
			c-6.81-1.317-13.62-0.659-20.107,0.329c3.243,0,6.162,0.659,9.405,0.988c-6.486,0.33-12.972,1.647-19.134,3.954
			c3.567-0.33,7.459-0.988,11.026-0.988c-6.162,1.647-11.999,3.624-17.512,6.919c3.892-1.647,7.783-2.636,11.999-2.965
			c-5.513,1.977-10.702,4.612-15.566,8.237c3.892-2.308,8.107-3.296,12.324-4.284c-5.189,2.307-9.729,5.601-14.269,8.896
			c3.892-1.977,8.107-3.953,12.324-5.271c-4.865,2.636-9.081,6.26-12.972,9.884c3.567-2.636,7.458-4.613,11.675-5.931
			c-4.54,2.636-8.432,6.261-12,10.214c3.243-2.636,6.811-4.612,10.378-6.26c-3.892,3.295-7.783,7.249-11.026,11.202
			c2.595-2.636,6.162-4.283,9.405-6.261c-3.892,3.625-7.459,7.578-10.053,12.521c2.27-2.636,4.865-4.942,7.783-6.59
			c-3.243,4.283-6.486,8.896-8.756,13.839C37.03,80.178,38.976,77.872,41.57,76.225z"/>
		<path style="fill:#FF8800;" d="M54.625,48.257c5.864,5.864,5.968,15.268,0.233,21.001c-5.734,5.735-15.137,5.63-21.001-0.233
			c-5.863-5.864-6.737-27.504-6.737-27.504S48.762,42.394,54.625,48.257z"/>
		<path style="fill:#70491A;" d="M48.115,51.662c3.064,3.064,3.119,7.978,0.122,10.975c-2.997,2.997-7.91,2.942-10.974-0.122
			c-3.064-3.064-3.521-14.373-3.521-14.373S45.051,48.599,48.115,51.662z"/>
		<path style="fill:#FF8800;" d="M114.846,48.257c-5.863,5.864-5.968,15.268-0.233,21.001c5.734,5.735,15.137,5.63,21-0.233
			c5.864-5.864,6.737-27.504,6.737-27.504S120.71,42.394,114.846,48.257z"/>
		<path style="fill:#70491A;" d="M121.356,51.662c-3.064,3.064-3.119,7.978-0.122,10.975c2.997,2.997,7.91,2.942,10.974-0.122
			c3.064-3.064,3.521-14.373,3.521-14.373S124.42,48.599,121.356,51.662z"/>
		<ellipse style="fill:#FEFEFD;" cx="84.295" cy="91.424" rx="57.264" ry="47.797"/>
		<path style="fill:#FF8800;" d="M141.544,91.246c0.002-0.164,0.015-0.325,0.015-0.489c0-26.397-25.638-47.797-57.264-47.797
			c-31.625,0-57.264,21.399-57.264,47.797c0,0.164,0.013,0.325,0.015,0.489H141.544z"/>
		<ellipse cx="59.271" cy="84.697" rx="4.824" ry="4.933"/>
		<ellipse cx="108.17" cy="84.697" rx="4.824" ry="4.933"/>
		<path style="fill:#FF8800;" d="M94.869,85.891L84.295,97.217L73.721,85.891c0,0-31.142,13.354-21.853,29.905
			c7.908,14.09,20.506,13.266,23.308,11.621c2.355-1.384,7.313-4.989,9.12-14.148c1.807,9.159,6.765,12.765,9.121,14.148
			c2.801,1.644,15.399,2.469,23.307-11.621C126.012,99.244,94.869,85.891,94.869,85.891z"/>
		<path style="fill:#70491A;" d="M96.189,93.71c0,2.448-5.325,9.737-11.895,9.737c-6.569,0-11.894-7.289-11.894-9.737
			c0-2.447,5.325-4.431,11.894-4.431C90.864,89.279,96.189,91.263,96.189,93.71z"/>
		<path style="fill:#70491A;" d="M69.721,95.011c-10.518-0.252-20.925,1.474-30.795,5.119c-0.898,0.332-0.511,1.78,0.398,1.445
			c9.753-3.603,20.003-5.316,30.397-5.066C70.688,96.532,70.686,95.034,69.721,95.011z"/>
		<path style="fill:#70491A;" d="M71.532,101.735c-10.515,1.75-20.278,6.215-28.528,12.956c-0.749,0.611,0.318,1.665,1.06,1.059
			c8.047-6.575,17.621-10.864,27.867-12.569C72.882,103.022,72.477,101.578,71.532,101.735z"/>
		<path style="fill:#70491A;" d="M67.817,109.085c-8.069,6.138-14.649,13.879-19.35,22.866c-0.447,0.855,0.846,1.612,1.293,0.757
			c4.575-8.745,10.955-16.353,18.813-22.33C69.332,109.802,68.587,108.499,67.817,109.085z"/>
		<path style="fill:#70491A;" d="M98.869,95.011c10.517-0.252,20.925,1.474,30.795,5.119c0.898,0.332,0.51,1.78-0.398,1.445
			c-9.752-3.603-20.002-5.316-30.397-5.066C97.902,96.532,97.905,95.034,98.869,95.011z"/>
		<path style="fill:#70491A;" d="M97.059,101.735c10.515,1.75,20.278,6.215,28.528,12.956c0.749,0.611-0.318,1.665-1.06,1.059
			c-8.048-6.575-17.622-10.864-27.867-12.569C95.708,103.022,96.113,101.578,97.059,101.735z"/>
		<path style="fill:#70491A;" d="M100.773,109.085c8.069,6.138,14.649,13.879,19.35,22.866c0.447,0.855-0.846,1.612-1.294,0.757
			c-4.574-8.745-10.955-16.353-18.813-22.33C99.258,109.802,100.003,108.499,100.773,109.085z"/>
	</g>
</g>
<g>
</g>
<g>
</g>
<g>
</g>
<g>
</g>
<g>
</g>
<g>
</g>
<g>
</g>
<g>
</g>
<g>
</g>
<g>
</g>
<g>
</g>
<g>
</g>
<g>
</g>
<g>
</g>
<g>
</g>
</svg>
