<?xml version="1.0" encoding="UTF-8"?>
<!DOCTYPE svg PUBLIC "-//W3C//DTD SVG 1.1//EN" "http://www.w3.org/Graphics/SVG/1.1/DTD/svg11.dtd">
<!-- Creator: CorelDRAW 2020 (64-Bit) -->
<svg xmlns="http://www.w3.org/2000/svg" xml:space="preserve" width="4.2332mm" height="4.2332mm" version="1.1" style="shape-rendering:geometricPrecision; text-rendering:geometricPrecision; image-rendering:optimizeQuality; fill-rule:evenodd; clip-rule:evenodd"
viewBox="0 0 423.32 423.32"
 xmlns:xlink="http://www.w3.org/1999/xlink"
 xmlns:xodm="http://www.corel.com/coreldraw/odm/2003">
 <defs>
  <style type="text/css">
   <![CDATA[
    .fil0 {fill:#99C23B}
    .fil1 {fill:#FEFFFD}
   ]]>
  </style>
 </defs>
 <g id="Layer_x0020_1">
  <metadata id="CorelCorpID_0Corel-Layer"/>
  <g id="_1456542326672">
   <circle class="fil0" cx="211.66" cy="211.65" r="211.66"/>
   <path class="fil1" d="M129.55 304.35c0.84,9.44 9.08,16.82 17.6,19.67 25.44,8.51 37.08,-17.72 100.55,-1.59 12.13,3.09 20.67,5.86 32.35,-0.21 7.32,-3.79 14.6,-11.4 13.51,-23.06 -1.12,-11.9 -18.36,-40.21 -24.5,-49.38 -22.65,-33.8 -47.06,-72.19 -84.16,-39.67 -9.18,8.04 -57.39,71.55 -55.35,94.24z"/>
   <path class="fil1" d="M83.99 214.95c7.2,53.52 73.17,51.85 64.56,-4.69 -8.45,-55.5 -72.2,-52.07 -64.56,4.69z"/>
   <path class="fil1" d="M157.53 104.11c-39.14,15.49 -13.88,95.96 26.86,80.7 38.54,-14.41 13.31,-96.6 -26.86,-80.7z"/>
   <path class="fil1" d="M246.87 104.04c-43.42,16.31 -33.44,96.6 9.82,80.74 14.04,-5.14 27.56,-24.92 27.69,-45.99 0.14,-21.8 -14.61,-43.35 -37.51,-34.75z"/>
   <path class="fil1" d="M307.17 171.26c-13.74,3.06 -17.59,6.71 -23.41,15.9 -4.95,7.81 -8.88,16.96 -9.54,28.03 -3.31,55.89 63.27,48.83 65.57,-5.99 0.9,-21.23 -11.17,-42.7 -32.62,-37.94z"/>
  </g>
 </g>
</svg>
